<?xml version="1.0" encoding="utf-8"?>
<!-- Generator: Adobe Illustrator 24.2.3, SVG Export Plug-In . SVG Version: 6.00 Build 0)  -->
<svg version="1.1" id="Layer_1" xmlns="http://www.w3.org/2000/svg" xmlns:xlink="http://www.w3.org/1999/xlink" x="0px" y="0px"
	 viewBox="0 0 585 181" style="enable-background:new 0 0 585 181;" xml:space="preserve">
<style type="text/css">
	.st0{fill:#477ABD;}
	.st1{fill:#EE3431;}
	.st2{fill:#FDBA12;}
	.st3{fill:#11AB4B;}
	.st4{fill:#FFFFFF;}
</style>
<g>
	<g>
		<path class="st0" d="M8.7,154v25.3h-8v-62.5H22c5.4,0,10,1.8,13.8,5.4c3.8,3.6,5.8,8,5.8,13.2c0,5.3-1.9,9.7-5.8,13.3
			C32,152.2,27.4,154,22,154H8.7z M8.7,124.5v21.8h13.4c3.2,0,5.8-1.1,7.9-3.2c2.2-2.2,3.2-4.7,3.2-7.7c0-2.9-1.1-5.4-3.2-7.6
			c-2.1-2.2-4.7-3.3-7.9-3.3H8.7z"/>
	</g>
	<g>
		<path class="st1" d="M64.6,180.7c-6.3,0-11.5-2.2-15.5-6.5c-4.1-4.3-6.1-9.7-6.1-16.3c0-6.5,2-11.9,5.9-16.3c4-4.3,9-6.5,15.2-6.5
			c6.3,0,11.4,2.1,15.1,6.2c3.8,4.1,5.6,9.8,5.6,17.2l-0.1,0.9H51.2c0.1,4.2,1.5,7.6,4.2,10.1c2.7,2.6,5.9,3.8,9.6,3.8
			c5.1,0,9.1-2.6,12-7.7l7.2,3.5c-1.9,3.6-4.6,6.4-8,8.5C72.8,179.7,68.9,180.7,64.6,180.7z M51.8,152.8h24.5
			c-0.2-3-1.4-5.4-3.6-7.4c-2.2-1.9-5.1-2.9-8.8-2.9c-3,0-5.6,0.9-7.8,2.8C53.9,147.1,52.5,149.6,51.8,152.8z"/>
	</g>
	<g>
		<path class="st2" d="M107.8,180c-3.5,0-6.4-1.1-8.7-3.2c-2.3-2.2-3.5-5.2-3.5-9v-23.9h-7.5v-7.3h7.5v-13.1h8v13.1h10.5v7.3h-10.5
			v21.3c0,2.9,0.6,4.8,1.7,5.8c1.1,1,2.4,1.5,3.8,1.5c0.6,0,1.3-0.1,1.9-0.2c0.6-0.1,1.2-0.3,1.7-0.6l2.5,7.2
			C113.1,179.6,110.6,180,107.8,180z"/>
	</g>
	<g>
		<path class="st1" d="M129.8,179.3h-8v-42.8h7.7v7h0.3c0.8-2.3,2.5-4.2,5-5.8c2.5-1.6,5-2.4,7.5-2.4c2.3,0,4.3,0.3,5.9,1l-2.4,7.8
			c-1-0.4-2.6-0.6-4.7-0.6c-3,0-5.7,1.2-7.9,3.7c-2.2,2.4-3.4,5.3-3.4,8.6V179.3z"/>
	</g>
	<g>
		<path class="st3" d="M148.4,157.9c0-6.6,2.1-12,6.2-16.3c4.2-4.3,9.5-6.5,15.8-6.5c6.3,0,11.6,2.2,15.7,6.5
			c4.2,4.3,6.3,9.7,6.3,16.3c0,6.6-2.1,12.1-6.3,16.3c-4.1,4.3-9.4,6.5-15.7,6.5c-6.3,0-11.6-2.2-15.8-6.5
			C150.5,169.9,148.4,164.5,148.4,157.9z M156.5,157.9c0,4.6,1.3,8.3,4,11.2c2.7,2.9,6,4.3,10,4.3c4,0,7.3-1.4,10-4.3
			c2.7-2.9,4-6.6,4-11.2c0-4.5-1.3-8.2-4-11.1c-2.7-2.9-6.1-4.4-10-4.4c-3.9,0-7.2,1.5-10,4.4C157.8,149.7,156.5,153.4,156.5,157.9z
			"/>
	</g>
	<g>
		<path class="st0" d="M238.2,124.5v54.8h-8v-54.8h-17.5v-7.7h42.9v7.7H238.2z"/>
	</g>
	<g>
		<path class="st1" d="M265.4,179.3h-8v-42.8h7.7v7h0.3c0.8-2.3,2.5-4.2,5-5.8c2.5-1.6,5-2.4,7.5-2.4c2.3,0,4.3,0.3,5.9,1l-2.4,7.8
			c-1-0.4-2.6-0.6-4.7-0.6c-3,0-5.7,1.2-7.9,3.7c-2.2,2.4-3.4,5.3-3.4,8.6V179.3z"/>
	</g>
	<g>
		<path class="st2" d="M303.5,135.1c5.9,0,10.6,1.6,14.1,4.8c3.4,3.2,5.1,7.5,5.1,13v26.4h-7.7v-5.9h-0.3c-3.3,4.9-7.7,7.3-13.3,7.3
			c-4.7,0-8.7-1.4-11.8-4.2c-3.2-2.8-4.8-6.3-4.8-10.5c0-4.4,1.7-7.9,5-10.6c3.3-2.6,7.8-3.9,13.4-3.9c4.8,0,8.7,0.9,11.8,2.6v-1.8
			c0-2.8-1.1-5.2-3.3-7.1c-2.2-1.9-4.8-2.9-7.8-2.9c-4.5,0-8,1.9-10.6,5.7l-7.1-4.5C290.2,137.9,295.9,135.1,303.5,135.1z
			 M293.2,166.2c0,2.1,0.9,3.8,2.7,5.2c1.8,1.4,3.9,2.1,6.2,2.1c3.4,0,6.4-1.3,9-3.8c2.6-2.5,4-5.4,4-8.8c-2.5-2-6-3-10.5-3
			c-3.3,0-6,0.8-8.2,2.4C294.2,161.9,293.2,163.9,293.2,166.2z"/>
	</g>
	<g>
		<path class="st1" d="M331.8,136.5h7.7v5.9h0.3c1.2-2.1,3.1-3.8,5.6-5.2c2.5-1.4,5.2-2.1,7.9-2.1c5.2,0,9.3,1.5,12.1,4.5
			c2.8,3,4.2,7.3,4.2,12.8v26.9h-8v-26.4c-0.2-7-3.7-10.5-10.6-10.5c-3.2,0-5.9,1.3-8,3.9c-2.2,2.6-3.2,5.7-3.2,9.3v23.7h-8V136.5z"
			/>
	</g>
	<g>
		<path class="st3" d="M411.4,167.4c0,3.7-1.6,6.9-4.9,9.4c-3.3,2.6-7.4,3.8-12.3,3.8c-4.3,0-8.1-1.1-11.3-3.4
			c-3.3-2.2-5.6-5.2-7-8.9l7.2-3.1c1,2.6,2.6,4.6,4.6,6c2,1.4,4.2,2.1,6.6,2.1c2.6,0,4.7-0.6,6.4-1.7c1.7-1.1,2.6-2.4,2.6-3.9
			c0-2.7-2.1-4.7-6.3-6l-7.3-1.8c-8.3-2.1-12.5-6.1-12.5-12c0-3.9,1.6-7,4.8-9.4c3.2-2.4,7.2-3.5,12.2-3.5c3.8,0,7.2,0.9,10.3,2.7
			c3.1,1.8,5.2,4.2,6.4,7.2l-7.2,3c-0.8-1.8-2.1-3.2-4-4.2c-1.8-1-3.9-1.5-6.2-1.5c-2.1,0-4,0.5-5.6,1.6c-1.7,1-2.5,2.3-2.5,3.8
			c0,2.4,2.3,4.2,6.9,5.2l6.5,1.7C407.2,156.7,411.4,161,411.4,167.4z"/>
	</g>
	<g>
		<path class="st0" d="M426.4,116.8v62.5h-8v-62.5H426.4z"/>
	</g>
	<g>
		<path class="st1" d="M452,135.1c5.9,0,10.6,1.6,14.1,4.8c3.4,3.2,5.1,7.5,5.1,13v26.4h-7.7v-5.9h-0.3c-3.3,4.9-7.7,7.3-13.3,7.3
			c-4.7,0-8.7-1.4-11.8-4.2c-3.2-2.8-4.8-6.3-4.8-10.5c0-4.4,1.7-7.9,5-10.6c3.3-2.6,7.8-3.9,13.4-3.9c4.8,0,8.7,0.9,11.8,2.6v-1.8
			c0-2.8-1.1-5.2-3.3-7.1c-2.2-1.9-4.8-2.9-7.8-2.9c-4.5,0-8,1.9-10.6,5.7l-7.1-4.5C438.6,137.9,444.4,135.1,452,135.1z
			 M441.6,166.2c0,2.1,0.9,3.8,2.7,5.2c1.8,1.4,3.9,2.1,6.2,2.1c3.4,0,6.4-1.3,9-3.8c2.6-2.5,4-5.4,4-8.8c-2.5-2-6-3-10.5-3
			c-3.3,0-6,0.8-8.2,2.4C442.7,161.9,441.6,163.9,441.6,166.2z"/>
	</g>
	<g>
		<path class="st2" d="M496.4,180c-3.5,0-6.4-1.1-8.7-3.2c-2.3-2.2-3.5-5.2-3.5-9v-23.9h-7.5v-7.3h7.5v-13.1h8v13.1h10.5v7.3h-10.5
			v21.3c0,2.9,0.6,4.8,1.7,5.8c1.1,1,2.4,1.5,3.8,1.5c0.6,0,1.3-0.1,1.9-0.2c0.6-0.1,1.2-0.3,1.7-0.6l2.5,7.2
			C501.6,179.6,499.1,180,496.4,180z"/>
	</g>
	<g>
		<path class="st1" d="M507.4,157.9c0-6.6,2.1-12,6.2-16.3c4.2-4.3,9.5-6.5,15.8-6.5c6.3,0,11.6,2.2,15.7,6.5
			c4.2,4.3,6.3,9.7,6.3,16.3c0,6.6-2.1,12.1-6.3,16.3c-4.1,4.3-9.4,6.5-15.7,6.5c-6.3,0-11.6-2.2-15.8-6.5
			C509.5,169.9,507.4,164.5,507.4,157.9z M515.5,157.9c0,4.6,1.3,8.3,4,11.2c2.7,2.9,6,4.3,10,4.3c4,0,7.3-1.4,10-4.3
			c2.7-2.9,4-6.6,4-11.2c0-4.5-1.3-8.2-4-11.1c-2.7-2.9-6.1-4.4-10-4.4c-3.9,0-7.2,1.5-10,4.4C516.8,149.7,515.5,153.4,515.5,157.9z
			"/>
	</g>
	<g>
		<path class="st3" d="M565.9,179.3h-8v-42.8h7.7v7h0.3c0.8-2.3,2.5-4.2,5-5.8c2.5-1.6,5-2.4,7.5-2.4c2.3,0,4.3,0.3,5.9,1l-2.4,7.8
			c-1-0.4-2.6-0.6-4.7-0.6c-3,0-5.7,1.2-7.9,3.7c-2.2,2.4-3.4,5.3-3.4,8.6V179.3z"/>
	</g>
	<path class="st4" d="M241.5,44.1c0,0-2.1,0.6-2.9,1.6c-0.8,1-1.4,4.1-0.6,5.7c0.9,1.6,2.3,2.3,2.8,4.6c0.5,2.3,0.7,5.1,0.8,6.2
		c0.1,1.1,0.8,0.8,0.4,3.5c-0.4,2.7-0.1,3.9,0.5,4.6c0.6,0.7,1.5,0.3,1.9,2.1c0.4,1.9,0.2,4.5,3.1,6.4c2.9,1.9,12.3,6.2,13.6,7.2
		c1.4,1,3.8,3.7,6,4.4c2.1,0.6,4.2,1,6-0.2c1.8-1.2,1.9-1.6,3.1-1c1.2,0.6,2.9,1.6,4.2,0.8c1.3-0.8,2.2-1.6,3.5-2.2
		c1.3-0.6,6.8-1.9,8.8-4.6c2-2.7,5.2-6.1,5.9-8.9c0.7-2.9-0.4-4.3,1.2-5.6c1.6-1.2,2.1-0.7,2.5-3.1c0.4-2.3-0.6-4.4,0.6-6.2
		c1.2-1.8,1.3-1.6,2.2-3.9c0.8-2.3,0.7-2.2,1.3-6.5c0.6-4.3-0.2-13.2-0.9-16.9c-0.7-3.7-2.9-15.8-4.9-19.3
		c-3.3-5.7-16.6-6.6-23.7-3.9c-7.1,2.7-10.9,2.1-18.2,7.4c-7.3,5.3-9.3,3.5-12.1,9.9c-2.7,6.4-3.9,10.1-4.1,12.6
		C242.3,41.2,241.5,44.1,241.5,44.1z"/>
	<path class="st0" d="M256.7,41.7l1.1-0.5C257.5,41.4,257.1,41.6,256.7,41.7z M254.1,41.7c0,0.1,0,0.2,0.1,0.3
		C254.2,41.8,254.2,41.8,254.1,41.7z M254.1,41.6C254.1,41.6,254.1,41.6,254.1,41.6C254.1,41.6,254.1,41.6,254.1,41.6z M270.9,40.5
		c-0.2-0.3-0.4-0.5-0.6-0.7C270.5,40,270.7,40.2,270.9,40.5z M271.5,41.5c0,0.1,0,0.3,0,0.4c-0.2-1.2-0.9-2-1.9-2.6
		c0,0-0.1,0-0.1-0.1c-0.4-0.2-0.9-0.4-1.3-0.6c-0.6-0.2-1.3-0.4-2-0.6c0.5,0.1,1.1,0.3,1.7,0.4c-0.5-0.2-1.1-0.3-1.7-0.4l-1.1-0.3
		c0.4,0.1,0.7,0.2,1.1,0.2c-0.1,0-0.2,0-0.3-0.1c-1.5-0.4-3.1-0.8-4.6-1c-1.4-0.2-2.6,0.2-3.8,0.9c-0.3,0.2-1.6,1.2-2.6,2.2
		l-0.1,0.1c-0.2,0.2-0.5,0.6-0.6,0.9c-0.3,0.6-0.3,1,0.4,1.3c0.4,0.1,0.8,0,1.1-0.1c0.8-0.3,1.6-0.7,2.3-1c0.7-0.3,1.4-0.6,2.1-1
		c0.4-0.2,0.8-0.4,1.2-0.6l0.4-0.2c0.3-0.1,0.6-0.3,0.9-0.3c1-0.3,2.1,0.1,3.1,0.4c0.9,0.2,1.8,0.4,2.6,0.7c0.6,0.2,0.9,0.6,1.2,1.2
		c0.1,0.2,0.2,0.5,0.4,0.7c0.3,0.5,0.8,0.7,1.4,0.8c0,0,0,0,0,0C271.5,42.4,271.5,41.9,271.5,41.5C271.5,41.4,271.5,41.4,271.5,41.5
		z"/>
	<path class="st0" d="M248.3,65C248.3,65,248.3,64.9,248.3,65C248.3,64.9,248.3,65,248.3,65z"/>
	<path class="st0" d="M263.8,59.8c0.1-0.1-0.1-0.3-0.2-0.2c-1,1.1-2,2.4-3.4,2.9c-1,0.4-1.8,0.6-2.5,1.4c-0.9,1-2.7,3.8-0.8,4.6
		c0.6,0.3,1.1-0.5,0.8-1c-0.3-0.4,0.4-1.8,0.5-2.2c0.4-1,1-1.6,1.9-2.2C261.5,62.2,262.6,61.1,263.8,59.8z"/>
	<path class="st0" d="M282.2,47.4c1-0.5,2-0.9,3-1.2c0,0.3,0.1,0.6,0.1,0.8c0.3,0.9,1.1,1.6,2,1.9c2,0.7,3.8-0.9,4.1-2.8
		c0-0.1,0-0.3-0.1-0.3c0.1,0.1,0.3,0.1,0.4,0.2c0.8,0.6,1,1.6,1.6,2.3c0.3,0.3,0.8,0.1,0.8-0.3c-0.2-2-2.1-3.4-3.9-3.4
		c-2.9,0.1-5.7,0.9-8.3,2.2C281.6,46.9,281.8,47.5,282.2,47.4z"/>
	<path class="st0" d="M268.1,61.1c0.5,0,1-0.2,1.5-0.1c0.7,0.1,1.3,0.5,1.7,1.1c0.7,1.6,2.4,2.7,4.1,1.8c0.7-0.4,1.2-1,2.1-1.2
		c0.8-0.2,1.7,0,2.5-0.2c1.1-0.2,2.2-0.9,2.7-1.9c0.9-1.8-0.2-4.3-2.4-3.9c-0.5,0.1-0.5,0.9,0,1c1.6,0.1,2.3,1.5,1.5,2.9
		c-0.8,1.3-2.2,1.4-3.5,1.5c-0.6,0-1.2,0.1-1.7,0.4c-0.9,0.5-1.4,1.3-2.5,1.3c-3.1-0.2-2.6-4.2-2.2-6.3c0.3-2.1,0.6-4.2,0.8-6.3
		c0,0,0,0-0.1,0c-0.2,1.8-0.5,3.5-0.8,5.3c-0.3,1.5-0.8,3-0.6,4.5c-0.3-0.3-0.7-0.6-1.2-0.7c-0.7-0.2-1.7,0.2-2.2-0.4
		c-0.9-0.9,0.3-1.9,1.2-2.2c0.3-0.1,0.3-0.5,0-0.5c-1.6-0.3-3.1,1.3-2.4,2.9C266.6,60.6,267.3,61.1,268.1,61.1z"/>
	<path class="st0" d="M285.8,60.6C285.7,60.6,285.7,60.7,285.8,60.6c0.5,0.5,0.8,1,1.1,1.6c0.2,0.5,0.4,1.1,0.7,1.5
		c0.3,0.3,0.8,0.1,0.8-0.3C288.2,62.2,286.7,61.3,285.8,60.6z"/>
	<path class="st0" d="M301.8,57.1C301.8,57.1,301.7,57.1,301.8,57.1C301.7,57.1,301.8,57.1,301.8,57.1
		C301.8,57.1,301.8,57.1,301.8,57.1z M295.2,78.6c-1.5,2.6-3.3,5.1-6.1,6.3c-2.3,1.1-5,1.4-7.1,2.9c-0.4,0.3-0.8,0.8-1.2,1.1
		c-0.6,0.4-0.8,0.5-1.6,0.5c-0.5,0-1-0.2-1.5-0.3c-1.2-0.3-2.1-0.9-3.4-0.5c-1.6,0.5-2.9,1.5-4.8,1.6c-2.1,0.1-3.3-1.1-4.7-2.3
		c-1.7-1.4-3.6-2.6-5.6-3.6c-2.2-1.1-4.5-2.1-6.6-3.2c-2.2-1.2-5.3-2.5-6.6-4.7c-1.6-2.7-1.5-6.5-1-9.5c0.6-3.6,1.4-6.9,0.6-10.5
		c-0.1-0.2-0.4-0.2-0.4,0.1c0.5,3.7-0.9,7.4-1.4,11c0,0.3-0.1,0.6-0.1,0.8c0,0-0.1,0-0.1,0c-1.9-0.1-1.1-2.7-1-3.8
		c0.1-1-0.1-1.9-0.3-2.9c-0.5-2.4-1-4.9-1.4-7.3c0-0.3-0.2-0.5-0.5-0.6c-0.3-0.7-0.7-1.4-1.2-2.2c-0.2-0.3-0.4-0.7-0.6-1
		c-0.6-0.8-0.9-1.7-0.6-2.7c0.3-1.2,1.4-2.4,2.6-2.4c0.2,0,0.3-0.1,0.5-0.1c0.2,0.1,0.4,0.1,0.7,0.2c0.3,0.1,0.6,0.2,0.9,0.4l0,0
		c0,0,0,0,0.1,0c0.2,0.1,0.3,0.2,0.5,0.4c1.4,1.2,0.9,3.2,0.7,4.8l-0.3-0.8c0,0,0,0,0,0l0.3,0.8l0,0c0,0.2-0.1,0.4-0.1,0.6
		c-0.1,1.2,0.2,2.8,1.2,3.6c0.4,0.3,0.9,0.4,1.4,0.3c0,0,0,0,0,0c-0.4-2.3-0.4-4.7-0.1-7.1c0.1,0,0.1,0,0.2,0.1
		c0.2,0.2,0.3,0.3,0.5,0.5c1.1,0.9,2.3,1.6,3.5,2.3c0.1,0.4,0.3,0.5,0.6,0.6c0.7,1.4,1.1,2.8,2.6,3.5c1.1,0.4,2.3,0.5,3.4,0.7
		c1.8,0.3,3.6,0.6,5.5,0.9c0.2,0,0.3-0.3,0.1-0.3c-2.6-0.6-5.4-1-7.9-1.9c-2-0.7-1.8-3.4-2.7-5.1c-0.1-0.2-0.2-0.3-0.3-0.4
		c0-0.1-0.1-0.2-0.2-0.2c-0.3-0.6-0.6-1.2-0.5-2c0.1-0.9,1.1-1.5,1.8-1.9c2.1-1.1,4.7-1.4,7-1.4c0.5,0,1,0,1.5,0
		c-0.4,0-0.8,0.1-1.2,0.3c-1.7,0.4-3.5,1.3-4.3,2.8c-0.2,0.3,0.1,0.7,0.4,0.5c0.7-0.4,1.2-1,1.8-1.5c0.6-0.5,1.3-0.9,2-1.1
		c0.1,0.5,0.2,0.9,0.5,1.3c0,0.1,0.1,0.1,0.1,0.2c0.1,0.1,0.1,0.2,0.2,0.2c0.5,0.6,1.2,1,2.1,1c1.2,0,3.2-1,2.9-2.5
		c0.6,0.1,1.1,0.3,1.5,0.7c0,0,0,0,0.1,0.1c0.1,0.1,0.2,0.2,0.2,0.3c0.1,0.1,0.3,0,0.2-0.2c-0.1-0.2-0.3-0.4-0.5-0.6
		c-0.2-0.3-0.5-0.5-0.8-0.6c-0.5-0.4-1.1-0.7-1.8-0.8c0.6,0.1,1.1,0.1,1.7,0.2c2.5,0.5,3.9,3,4.5,5.4c0.1,0.6,1,0.4,0.9-0.2
		c-0.2-1-0.5-2.1-1-3c1.4,0.1,2.9,0.2,4.3,0.4c0.9,0.1,2,0.4,3,0.3c-0.3,1.6,0.5,3.7,0.9,5.1c0.1,0.4,0.7,0.3,0.7-0.1
		c-0.2-1.4-0.5-2.7-0.6-4.1c-0.2-2,1.8-2.2,3.2-2.6c2.6-0.7,5.4-0.9,8.1-0.9c2.1,0,5.1-0.2,6.9,0.9c1.9,1.2,0.2,3.1,0,4.9
		c-0.9,1.1-1.2,2.8-1.7,4c-1.3,3.3-6.1,4-9.3,3.8c0,0,0,0,0,0c3.1,0.5,6.4,0.7,9.1-1.2c0.9-0.6,1.5-1.6,2-2.6
		c0.3-0.6,0.5-1.3,0.9-1.9c0.1-0.2,0.3-0.4,0.4-0.7c0.4-0.2,0.9-0.4,0.8-0.4c0.2,0,0.2-0.2,0.2-0.4c0.1,0,0.3-0.1,0.4-0.2
		c0.1,0,0.1-0.2,0.1-0.3c0.1-0.1,0.1-0.2,0.1-0.3c0,0,0.1,0,0.1-0.1c0,0,0,0,0,0c-0.3,1.1-0.4,2.3-0.3,3.5c0.1,0.7,0.3,1.3,0.6,1.9
		l0,0c0,0.1,0.1,0.2,0.2,0.3c0.1,0.1,0.2,0.2,0.2,0.4c0,0,0.1,0,0.1,0c0.2-0.6,0.3-1.1,0.5-1.7c0.3-0.7,0.8-1.4,1.2-1.9
		c0.2-0.3,0.7-0.8,1.1-0.9c0,0.2,0.1,0.4,0.2,0.6c0.2,0.4,0.5,0.8,0.8,1.1c0,0.1,0,0.2,0,0.3c-0.4-0.4-1-0.7-1.5-0.7
		c-0.4,0.1-0.8,0.5-1,0.9c-0.5,0.9-0.6,2-0.6,3c0,0-0.1,0-0.1,0.1c-0.1,0.1-0.1,0.2-0.1,0.3c0,0-0.1,0-0.1,0.1l0.1-0.1
		c-0.1,0.1-0.2,0.1-0.3,0.2c-0.2,0.2-0.2,0.5,0,0.8c0.2,0.3,0.7,0.3,1,0.1c0.2-0.1,0.3-0.4,0.3-0.6c0-0.1,0-0.2,0-0.2l0,0
		c0,0,0-0.1,0-0.1c0-0.2-0.2-0.4-0.3-0.5c0,0-0.1-0.1-0.1-0.1c0.1-0.8,0.2-1.8,0.9-2.1c0.1,0.2,0.3,0.4,0.5,0.6
		c0.2,0.2,0.5,0.3,0.8,0.2c-0.4,0.8-0.8,1.5-1.4,2.3c-0.6,0.8-1.1,1.5-1.3,2.4c-0.4,0.8-0.6,1.6-0.5,2.6c0.1,0.9,0.5,1.8,0.4,2.7
		c0,0.2-0.1,0.4-0.1,0.6c-0.2,0.4-0.4,0.8-0.5,1.2c0,0.1-0.1,0.1-0.1,0.2c-0.1-0.7-1.2-1.1-1.6-0.4c-0.1,0.2-0.2,0.5-0.2,0.7
		c-0.1,0-0.1,0.1-0.1,0.2c-0.3,0.6-0.3,1.3,0.1,1.8c0,0,0,0.1,0,0.1C298.5,72.9,296.8,75.8,295.2,78.6z M241.1,61.8
		C241.1,61.8,241.1,61.8,241.1,61.8C241.1,61.7,241.1,61.7,241.1,61.8C241.1,61.8,241.1,61.8,241.1,61.8z M284.9,3.1
		C284,2.3,283.1,1.4,282,1C283.1,1.4,284,2.3,284.9,3.1z M241.6,45.2c0.1,0,0.1,0,0.2,0.1C241.8,45.2,241.7,45.2,241.6,45.2
		C241.6,45.2,241.6,45.2,241.6,45.2z M240.5,29.8c0-0.4-0.1-0.9-0.1-1.3C240.4,28.9,240.5,29.4,240.5,29.8z M240.6,30.4L240.6,30.4
		L240.6,30.4z M249.6,28c-0.3,0.2-0.5,0.5-0.6,0.9c0-0.1,0-0.1,0-0.2C249.1,28.4,249.3,28.1,249.6,28z M250.4,47.3L250.4,47.3
		l-0.3-0.1c0,0,0,0,0.1,0c0,0,0.1,0,0.1,0c0.1,0,0.1,0,0.2,0C250.4,47.2,250.4,47.3,250.4,47.3z M262.9,46.8
		C263,46.8,263,46.8,262.9,46.8L262.9,46.8C263,46.8,262.9,46.8,262.9,46.8L262.9,46.8z M288.3,38.8c0.9-0.3,1.7-0.7,2.5-1
		C290.1,38.1,289.2,38.5,288.3,38.8C288.4,38.8,288.4,38.8,288.3,38.8z M296.1,41.9l-0.7-1.4c0.3,0.6,0.8,1.4,0.9,1.9
		C296.2,42.2,296.1,42.1,296.1,41.9z M299.9,47.4c0,0,0-0.1,0-0.1c0.1-1.2-0.4-2.2-1.3-2.9c-0.6-0.5-1.3-0.8-2.1-1
		c0.2-0.8-0.6-2-0.9-2.6c-0.6-1.4-1.3-3.1-3-3.3c-1.6-0.2-3.1,1-4.6,1.3c-1.6,0.4-3.3,0.1-4.8,0.7c-0.4,0.2-0.8,0.5-1.1,0.8
		c0,0,0,0,0,0c-0.3,0.4-0.6,0.8-0.8,1.3c-0.3,0.6-0.6,1.2-1.1,1.6c0-0.1,0-0.3,0-0.4c0.1,0,0-0.1-0.1-0.1c-0.5,0.4-0.5,0.9,0,1.3
		c0,0,0.1,0,0.1,0c2.1-1.9,5.4-3.8,8.5-3.9c0.1,0,0.2,0,0.3,0l0,0c0.6,0,1.2,0,1.8,0.2c0.1,0,0.2,0,0.3,0.1l0,0c1,0.3,2,0.8,2.8,1.7
		c0.3,0.3,0.5,0.7,0.7,1c-1.7-0.2-3.5,0-5,0c-3.2,0.2-6.8,0.7-9.8,1.9c-0.6,0.2-1,0.6-1.3,1c-1-0.5-2.4-0.3-3.5-0.3
		c-1.5,0-2.9,0.1-4.3,0.3c0,0,0,0,0,0c-0.6-1-1.4-1.9-2.5-2.4c-1.1-0.5-2.4-0.6-3.6-0.6c-1.5,0-3-0.1-4.6,0
		c-2.6,0.1-5.4,0.5-7.6,1.9c-0.6,0.4-1.1,0.9-1.5,1.4c-0.1-0.2-0.2-0.3-0.4-0.4c-1.1-0.4-2.3-0.7-3.5-0.7c0.5-1.7,1.1-3.4,1.6-5.2
		c0.7-2.2,1.4-4.5,1.3-6.8c0-1.1-0.2-2.1-0.6-3.1c-0.3-0.8-0.6-1.7,0.3-2.2c0.5-0.3,1.1-0.3,1.6-0.4c4.4-0.8,8.6-2.7,12.1-5.4
		c0.7-0.6,1.4-1.2,2.1-1.9c0.1-0.1,0.1-0.1,0.2-0.2c0.2-0.2,0.4-0.4,0.6-0.6c0.7-0.7,1.3-1.3,2-2c2-1.8,4.2-2.7,6.8-2.9
		c2.3-0.1,4.7,0.1,7.1,0.2c2.6,0.2,5.2,0.3,7.8,0.5c2.5,0.1,5.5,0,7.5,1.9c1.4,1.4,2,3.4,2.4,5.3c0.2,1.1,0.3,2.2,0.4,3.3
		c0.1,1.4-0.1,2.6-0.8,3.8c-0.5,0.8-0.9,1.6-1,2.6c-0.1,0.8,0.2,1.6,0.5,2.4c0.8,1.9,2.1,3.4,2.8,5.3c1,2.6,0.1,5.1-0.8,7.6
		C300.7,47.3,300.3,47.3,299.9,47.4z M306.5,51.9c2.1-4.1,2.2-9.1,1.4-13.6c-1-5.7-3-11.1-3.7-16.8c-0.3-2.7-0.5-5.7-1.6-8.3l0,0
		c-0.1-0.2-0.1-0.3-0.2-0.5c0,0,0-0.1,0-0.1c0,0,0-0.1-0.1-0.1l0,0c-0.1-0.1-0.1-0.2-0.2-0.3c-0.7-1.3-1.7-2.4-3-3.3
		c-0.9-0.6-1.9-1-3-1c-0.3,0-0.5,0-0.8,0c0.1-0.1,0.3-0.1,0.4-0.1c0,0,0-0.1,0-0.1c-2.2-0.1-4.4-0.7-6.4-1.6
		c-1.9-0.9-3.5-2.2-5.1-3.6c-1.1-1-2.7-2.2-4.3-1.5c-0.7,0.3-1.3,0.8-2,1.3c-0.4,0.2-0.8,0.5-1.2,0.5c-0.7,0.1-1.3-0.3-1.8-0.8
		c-0.6-0.6-1.2-1-2.1-1.2c-0.8-0.1-1.6,0-2.3,0.2c-1.9,0.6-3.3,2.1-5,3.1c-3,1.9-6.7,1.3-10,2.3c-1.4,0.4-2.6,1.2-3.4,2.5
		c-0.9,1.4-1.1,3-1.3,4.6c-0.3,1.7-0.6,3.6-1.9,4.9c-1.1,1.1-2.6,1.6-4,2c-0.9,0.3-1.8,0.6-2.6,1c-0.9,0.4-1.7,0.9-2.1,1.7
		c-0.4,0.6-0.6,1.3-0.6,2.2c0.1,1,0.4,2.1,0.6,3.1c0.2,1.2,0.3,2.4,0.2,3.6c-0.2,2.4-1.2,4.6-1.7,6.9c-0.4,1.6-0.4,3.3,0.5,4.7
		c0.2,0.3,0.3,0.5,0.5,0.7c-0.2,0-0.4,0.1-0.6,0.2c-1.2,0.6-2,2.3-2.3,3.5c-0.3,1.4,0.1,2.7,0.9,3.9c0.4,0.7,1,1.3,1.3,2.1
		c0.1,0.3,0.2,0.6,0.3,1c0,0.1,0,0.1,0,0.2c0,0.1,0,0.2,0.1,0.3c0.1,0.6,0.1,1.2,0.2,1.8c0,0,0,0.1,0,0.1c-0.1,0.1-0.1,0.1-0.2,0.2
		c-0.6,0-0.6,0.7-0.1,0.8l0,0c0.3,0,0.6,0.1,0.8,0.2c0.1,0.3,0.1,0.6,0.2,1c0.1,0.4,0.2,0.9,0.4,1.3c-0.2,0.3-0.5,0.5-0.9,0.6
		c-0.4,0.1-0.4,0.8,0,0.9c1,0.3,0.5,1.2,0.9,1.7c0.1,0.1,0.3,0.1,0.3,0.2l0.2,0c0,0.1,0,0.1,0,0.2l0,0c-0.2,0.5-0.5,0.8-1,1.1
		c-0.4,0.3-0.3,1.1,0.3,0.9c0.6-0.2,0.2,1.4,0.1,1.7c-0.1,0.5-0.1,0.9,0,1.4c0.2,0.9,0.7,1.7,1.5,2.3c0.8,0.6,1.3,0.5,1.5,0.2
		c0.1,1.3,0.4,2.6,0.9,3.9c0.9,2.5,3.4,3.9,5.6,5.2c2.4,1.4,4.9,2.5,7.3,3.7c2.2,1.1,4.3,2.3,6.3,3.8c1.2,0.9,2.3,2.1,3.8,2.6
		c1.4,0.4,3,0.2,4.4-0.3c0.7-0.2,1.4-0.6,2-0.9c1.2-0.5,1.9-0.2,3,0.1c1.2,0.4,3,1,4.1,0.1c0.5-0.3,0.8-0.9,1.2-1.2
		c0.6-0.5,1.4-0.9,2.1-1.2c1.4-0.6,2.9-0.9,4.3-1.5c3.2-1.2,5.4-3.7,7.1-6.6c1.8-2.9,4-6.3,4.2-9.7c1.3-0.1,2.1-1.6,2.5-2.6
		c0-0.1,0.1-0.2,0.1-0.4c0.1-0.2,0.2-0.4,0.2-0.5c0.6-1.6,0.4-3,0.1-4.6c-0.1-0.6-0.1-1,0-1.5c0.4-0.7,0.9-1.4,1.4-2.2
		c0.3-0.5,0.6-1.1,0.8-1.7c0.6-1.2,0.8-2.5,1-3.8C306.5,52.5,306.5,52.2,306.5,51.9z"/>
	<path class="st0" d="M241.6,48.3c0.6,0.5,0.9,1.3,1.2,2c0.1,0.2,0.4,0.1,0.4-0.1c-0.2-0.8,0.1-1.6-0.1-2.4
		c-0.2-0.7-0.7-1.3-1.3-1.5c-0.7-0.3-1.6,0-2.1,0.6c-0.5,0.7-0.5,1.6,0.3,2c0.2,0.1,0.6,0,0.8-0.1C241.1,48.5,241.1,47.9,241.6,48.3
		z"/>
	<path class="st0" d="M242.3,54c-0.2-0.4-0.7-3.2,0.4-3.2c0.2,0,0.3-0.3,0.1-0.3c-1.4-0.4-1.6,2.4-1.5,3.2c0.1,1.1,0.8,1.9,1.2,2.9
		c0.3,0.7,0.3,1.3,0.2,2.1c-0.1,0.6-0.1,0.8,0.3,1.3c0.1,0.2,0.4,0.3,0.6,0.2l0.2,0c0.4-0.1,0.7-0.4,0.8-0.8c0.2-1.2,0-2.5-0.8-3.5
		C243.3,55.1,242.6,54.7,242.3,54z"/>
	<path class="st0" d="M281.2,79.5c-2.6-1.3-5.7-0.6-8,1c-0.2,0.2,0,0.5,0.2,0.4c2.4-1.4,5-1.4,7.7-1C281.4,80,281.4,79.6,281.2,79.5
		z"/>
	<path class="st0" d="M281.9,74.7c-0.9,0.6-1.9,1.2-3,1.5c-2.1,0.7-4.3,0.7-6.4,0.6c-4-0.3-7.5-1.9-9.3-5.4c0.5,0.1,1.1,0.2,1.7,0.2
		c0.8,0,1.5-0.2,2.3-0.1c0.8,0,1.5,0.3,2.2,0.5c1,0.3,2.1,0.4,3.1,0.6c0.2,0,0.2-0.2,0-0.2c-1.9-0.4-3.7-1.8-5.7-1.8
		c-1.7,0-3,0.1-4.2-0.6c1.7-0.4,3.4-1,5.2-1.2c1.3-0.2,2.6-0.2,3.9,0.1c1,0.3,1.7,0.8,2.7,1.1c1.7,0.6,2.5-0.8,4.2-0.9
		c1.2-0.1,2.5,1.1,3.5,1.8c0.4,0.3,1.5,0.8,2.1,1.4c-1.3,0.6-2.7,0.6-4,0.2c-0.9-0.2-1.7-0.5-2.6-0.5c-1.4,0-2.7,0.6-4.1,0.6
		c-0.1,0-0.1,0.2,0,0.2c1.1,0.1,2.2-0.2,3.3-0.3c1.5-0.2,2.6,0.5,4.1,0.8c1.2,0.3,2.4,0.2,3.6-0.1C283.6,73.5,282.2,74.4,281.9,74.7
		z M285.8,70.5c-0.6-0.1-1.1,0.3-1.1,0.9c0,0,0,0.1,0,0.1c-0.2,0.1-0.3,0.2-0.5,0.4c-0.9-0.6-1.7-1.2-2.6-1.8
		c-0.7-0.5-1.5-1.1-2.4-1.4c-0.6-0.2-1.2-0.2-1.7,0c-0.6,0.2-1.1,0.7-1.7,0.9c-0.9,0.3-1.6-0.1-2.3-0.5c-3.7-1.9-7.4-0.4-11.2,0.6
		c-0.2-0.1-0.4-0.3-0.6-0.5c0.2-0.6,0.2-1.4-0.4-1.7c-0.5-0.2-1.1,0-1.4,0.5c-0.3,0.4-0.2,0.9,0,1.2c0,0.2,0.1,0.3,0.2,0.4
		c0.7,0.7,1.6,1.2,2.5,1.6c1.7,3.5,5,5.6,9,6c2.4,0.2,5.1,0.3,7.4-0.5c2.3-0.8,4.1-2.3,5.9-3.9c0.4-0.1,0.7-0.2,1.1-0.4
		c0.2-0.1,0.3-0.3,0.4-0.5c0.1-0.1,0.2-0.2,0.2-0.3C286.9,71,286.2,70.6,285.8,70.5z"/>
</g>
</svg>
